<svg height="512pt" viewBox="0 0 512 512" width="512pt" xmlns="http://www.w3.org/2000/svg"><path d="m511.996094 63.644531-51.414063-51.414062-24.75 17.683593-29.914062-29.914062-21.210938 21.222656 26.371094 26.371094-24.75 17.671875-22.84375-22.832031-21.210937 21.210937 21.210937 21.222657-78.714844 78.714843c-33.542969-11.140625-77.347656-9.101562-124.808593 6.011719-46.773438 14.890625-92.347657 41.421875-121.910157 70.984375-33.554687 33.5625-44.992187 69.617187-34.011719 107.179687 10.390626 35.53125 39.113282 67.644532 65.832032 94.367188 33.242187 33.238281 75 69.875 121.730468 69.875 27.742188 0 54.496094-12.730469 79.816407-38.054688 29.5625-29.5625 56.09375-75.132812 70.988281-121.90625 15.109375-47.464843 17.148438-91.269531 6.007812-124.8125l78.71875-78.714843 21.21875 21.210937 21.210938-21.210937-21.210938-21.222657 21.210938-21.210937 21.214844 21.210937 21.21875-21.210937-21.21875-21.210937zm-198.175782 279.292969c-13.507812 42.421875-37.292968 83.464844-63.613281 109.789062-19.472656 19.460938-38.003906 29.441407-58.054687 29.429688-28.371094 0-59.773438-19.960938-101.058594-61.253906-22.640625-22.632813-49.714844-52.355469-58.253906-81.566406-7.890625-26.980469.5-51.613282 26.433594-77.546876 26.320312-26.320312 67.363281-50.101562 109.789062-63.613281 33.699219-10.730469 65.542969-14.050781 90.945312-9.832031l-45.433593 45.433594c-14.070313.882812-27.890625 6.679687-38.621094 17.414062-10.441406 10.4375-16.542969 24.050782-17.441406 38.660156l-56.816407 56.804688-21.210937-21.222656-21.210937 21.222656 106.066406 106.070312 21.222656-21.210937-21.222656-21.214844 56.804687-56.8125c14.613281-.902343 28.222657-7 38.664063-17.441406 10.730468-10.730469 16.53125-24.550781 17.410156-38.625l45.433594-45.433594c4.222656 25.402344.902344 57.246094-9.832032 90.949219zm-74.222656-28.101562c-11.6875 11.664062-30.652344 11.757812-42.433594 0-11.671874-11.691407-11.761718-30.652344 0-42.433594 11.6875-11.6875 30.730469-11.703125 42.433594 0 11.699219 11.699218 11.699219 30.730468 0 42.433594zm-51.707031 30.480468-43.761719 43.765625-21.210937-21.214843 43.761719-43.761719c2.542968 4.300781 5.640624 8.308593 9.273437 11.941406 3.628906 3.628906 7.640625 6.730469 11.9375 9.269531zm82.1875-82.175781c-2.519531-4.269531-5.609375-8.289063-9.269531-11.949219s-7.679688-6.753906-11.953125-9.273437l145.582031-145.570313 62.894531-44.933594 12.230469 12.230469zm0 0"/><path d="m101.699219 261.792969 21.214843 21.214843-21.214843 21.214844-21.214844-21.214844zm0 0"/><path d="m228.984375 431.519531-21.210937-21.214843 21.210937-21.214844 21.214844 21.214844zm0 0"/></svg>